<svg width="12" height="12" viewBox="0 0 12 12" fill="none" xmlns="http://www.w3.org/2000/svg">
<g clip-path="url(#clip0_6_184)">
<path d="M8.50074 0.452332L7.36637 1.58671L10.4132 4.63358L11.5476 3.49921C12.1336 2.91327 12.1336 1.96405 11.5476 1.37811L10.6242 0.452332C10.0382 -0.133606 9.08902 -0.133606 8.50308 0.452332H8.50074ZM6.83668 2.11639L1.3734 7.58202C1.12965 7.82577 0.951522 8.12811 0.853085 8.45858L0.0233971 11.2781C-0.0351966 11.4773 0.0187096 11.6906 0.164022 11.8359C0.309335 11.9812 0.522616 12.0351 0.719491 11.9789L3.53902 11.1492C3.86949 11.0508 4.17183 10.8726 4.41558 10.6289L9.88355 5.16327L6.83668 2.11639Z" fill="#EF7B45"/>
</g>
<defs>
<clipPath id="clip0_6_184">
<rect width="12" height="12" fill="white"/>
</clipPath>
</defs>
</svg>
