<svg width="124" height="77" viewBox="0 0 124 77" fill="none" xmlns="http://www.w3.org/2000/svg">
<path d="M18.0284 35.7164V18.7262C18.0284 18.6289 18.067 18.5355 18.1358 18.4667C18.2046 18.3979 18.2978 18.3593 18.3951 18.3593H29.2644C29.3617 18.3593 29.4549 18.3979 29.5237 18.4667C29.5925 18.5355 29.6311 18.6289 29.6311 18.7262V20.4636C29.6311 20.561 29.5925 20.6543 29.5237 20.7231C29.4549 20.7919 29.3617 20.8306 29.2644 20.8306H21.343C21.2458 20.8306 21.1525 20.8692 21.0837 20.938C21.0149 21.0069 20.9763 21.1002 20.9763 21.1975V25.5918C20.9763 25.6892 21.0149 25.7825 21.0837 25.8513C21.1525 25.9201 21.2458 25.9588 21.343 25.9588H28.1512C28.2484 25.9588 28.3417 25.9974 28.4105 26.0662C28.4792 26.1351 28.5179 26.2284 28.5179 26.3257V28.09C28.5179 28.1873 28.4792 28.2807 28.4105 28.3495C28.3417 28.4183 28.2484 28.4569 28.1512 28.4569H21.3162C21.2189 28.4569 21.1256 28.4956 21.0569 28.5644C20.9881 28.6333 20.9495 28.7266 20.9495 28.8239V33.2451C20.9496 33.3424 20.9883 33.4356 21.057 33.5044C21.1258 33.5731 21.2189 33.6119 21.3162 33.612H29.2644C29.3617 33.612 29.4549 33.6507 29.5237 33.7195C29.5925 33.7883 29.6311 33.8816 29.6311 33.9789V35.7164C29.6309 35.8137 29.5922 35.9069 29.5235 35.9757C29.4548 36.0445 29.3616 36.0832 29.2644 36.0833H18.3951C18.2979 36.0832 18.2047 36.0445 18.136 35.9757C18.0672 35.9069 18.0285 35.8137 18.0284 35.7164Z" fill="#071013"/>
<path d="M48.6216 58.4804V41.4908C48.6216 41.3935 48.6603 41.3002 48.7289 41.2314C48.7975 41.1625 48.8912 41.1239 48.9884 41.1239H59.6207C59.7183 41.1239 59.8115 41.1625 59.8801 41.2314C59.9487 41.3002 59.9874 41.3935 59.9874 41.4908V43.2271C59.9874 43.3243 59.9487 43.4176 59.8801 43.4864C59.8111 43.5552 59.7179 43.5939 59.6207 43.594H51.9094C51.8122 43.594 51.719 43.6327 51.65 43.7015C51.5814 43.7703 51.5427 43.8636 51.5427 43.961V48.5144C51.5427 48.6121 51.5814 48.7054 51.65 48.774C51.719 48.8431 51.8122 48.8814 51.9094 48.8814H58.5583C58.6555 48.8814 58.7487 48.9201 58.8178 48.9892C58.8864 49.0578 58.9251 49.1511 58.9251 49.2483V51.0127C58.9251 51.11 58.8864 51.2032 58.8178 51.2723C58.7487 51.341 58.6555 51.3797 58.5583 51.3797H51.9094C51.8122 51.3797 51.719 51.4184 51.65 51.487C51.5814 51.5561 51.5427 51.6494 51.5427 51.7466V58.4804C51.5427 58.5776 51.504 58.6709 51.4354 58.74C51.3663 58.8086 51.2731 58.8474 51.1759 58.8474H48.9884C48.8912 58.8474 48.7975 58.8086 48.7289 58.74C48.6603 58.6709 48.6216 58.5776 48.6216 58.4804Z" fill="#071013"/>
<path d="M75.0306 58.8474H77.3232C77.3826 58.8474 77.4415 58.8333 77.4938 58.8056C77.5466 58.7783 77.5919 58.7383 77.6253 58.689C77.6592 58.6401 77.6807 58.5838 77.6878 58.5249C77.6948 58.4659 77.6873 58.4061 77.6662 58.3506L71.2266 41.3608C71.2006 41.2908 71.1536 41.2304 71.0925 41.1878C71.0313 41.1451 70.9583 41.1222 70.8836 41.1222H68.2805C68.2066 41.1221 68.1345 41.1444 68.0734 41.1861C68.0122 41.2279 67.9656 41.2871 67.9388 41.356L61.3202 58.3458C61.2987 58.4012 61.2907 58.4615 61.2978 58.5205C61.3044 58.5799 61.3255 58.6366 61.3593 58.6859C61.3928 58.7352 61.438 58.7752 61.4908 58.8034C61.5436 58.8311 61.6021 58.8456 61.6619 58.8456H63.7883C63.8635 58.8456 63.937 58.8223 63.999 58.7792C64.0605 58.7356 64.1071 58.6745 64.1326 58.6032L65.6949 54.2784C65.7209 54.2071 65.7679 54.146 65.8295 54.1029C65.8911 54.0593 65.9649 54.036 66.0401 54.036H72.7687C72.8434 54.036 72.9168 54.0584 72.9784 54.1011C73.04 54.1438 73.087 54.2045 73.1129 54.2749L74.6863 58.6014C74.7109 58.6731 74.7575 58.7352 74.8195 58.7792C74.8811 58.8236 74.9549 58.8474 75.0306 58.8474ZM66.8237 51.1549L69.0482 44.9962C69.0742 44.9253 69.1208 44.8642 69.1828 44.8211C69.2443 44.7779 69.3178 44.7546 69.393 44.7546C69.4681 44.7546 69.5416 44.7779 69.6036 44.8211C69.6651 44.8642 69.7117 44.9253 69.7377 44.9962L71.9767 51.1549C71.9969 51.2103 72.0031 51.2697 71.9956 51.3282C71.9877 51.3867 71.9662 51.4422 71.9323 51.4906C71.8985 51.539 71.8536 51.5786 71.8013 51.6054C71.7489 51.6327 71.6909 51.6472 71.632 51.6472H67.1689C67.1099 51.6472 67.0519 51.6327 66.9996 51.6054C66.9472 51.5781 66.9024 51.539 66.8685 51.4906C66.8347 51.4422 66.8131 51.3867 66.8052 51.3282C66.7973 51.2697 66.8039 51.2103 66.8237 51.1549Z" fill="#071013"/>
<path d="M82.923 58.4804V41.4908C82.923 41.4426 82.9323 41.3949 82.9507 41.3504C82.9692 41.3059 82.9965 41.2655 83.0303 41.2314C83.0642 41.1973 83.1046 41.1703 83.1495 41.1518C83.1939 41.1334 83.2414 41.1239 83.2897 41.1239H85.5037C85.6009 41.1239 85.6941 41.1625 85.7627 41.2314C85.8317 41.3002 85.8704 41.3935 85.8704 41.4908V58.4804C85.8704 58.5776 85.8317 58.6709 85.7627 58.74C85.6941 58.8086 85.6009 58.8474 85.5037 58.8474H83.2897C83.2414 58.8474 83.1939 58.8377 83.1495 58.8196C83.1046 58.8012 83.0642 58.7739 83.0303 58.74C82.9965 58.7057 82.9692 58.6652 82.9507 58.6208C82.9323 58.5763 82.923 58.5288 82.923 58.4804Z" fill="#071013"/>
<path d="M105.909 58.2789L101.822 52.0819C101.79 52.0349 101.771 51.9807 101.764 51.9249C101.757 51.8685 101.764 51.8113 101.782 51.7581C101.801 51.7049 101.832 51.6565 101.873 51.6169C101.913 51.5777 101.962 51.5482 102.016 51.5306C102.449 51.392 102.858 51.1892 103.23 50.9291C103.929 50.4443 104.488 49.7843 104.85 49.0147C105.226 48.2174 105.417 47.3453 105.408 46.464C105.408 44.6926 104.917 43.3601 103.934 42.4663C102.952 41.5726 101.54 41.1253 99.7008 41.1245H92.205C92.1078 41.1245 92.0146 41.1632 91.9456 41.232C91.877 41.3008 91.8383 41.3941 91.8383 41.4914V58.4804C91.8383 58.5777 91.877 58.6709 91.9456 58.74C92.0146 58.8087 92.1078 58.8474 92.205 58.8474H94.3926C94.4898 58.8474 94.5834 58.8087 94.652 58.74C94.7206 58.6709 94.7593 58.5777 94.7593 58.4804V52.518C94.7593 52.4207 94.798 52.3275 94.8666 52.2588C94.9356 52.1897 95.0289 52.151 95.126 52.151H98.3012C98.3637 52.151 98.4252 52.1673 98.4797 52.1977C98.5343 52.228 98.5804 52.272 98.613 52.3253L102.539 58.6736C102.572 58.7268 102.617 58.7708 102.672 58.8012C102.727 58.8315 102.788 58.8474 102.851 58.8474H105.603C105.669 58.8474 105.734 58.8298 105.791 58.7959C105.848 58.7616 105.895 58.7132 105.926 58.6547C105.958 58.5961 105.973 58.5306 105.969 58.4646C105.966 58.3981 105.946 58.3339 105.909 58.2789ZM94.7589 43.9622C94.7589 43.8648 94.7976 43.7715 94.8662 43.7027C94.9348 43.6339 95.0284 43.5952 95.1256 43.5952H99.353C100.45 43.5952 101.225 43.8609 101.678 44.3925C102.132 44.9236 102.358 45.6764 102.356 46.6506C102.356 47.6965 102.068 48.4761 101.493 48.9896C100.918 49.5031 100.046 49.7596 98.8772 49.7596H95.1278C95.0306 49.7596 94.9374 49.7213 94.8688 49.6523C94.7998 49.5836 94.7611 49.4903 94.7611 49.3927L94.7589 43.9622Z" fill="#071013"/>
<path d="M33.5468 35.7164V18.7262C33.5468 18.6289 33.5854 18.5355 33.6542 18.4667C33.7229 18.3979 33.8162 18.3593 33.9135 18.3593H44.7847C44.8818 18.3593 44.9751 18.3979 45.0441 18.4667C45.1127 18.5355 45.1514 18.6289 45.1514 18.7262V20.4636C45.1514 20.561 45.1127 20.6543 45.0441 20.7231C44.9751 20.7919 44.8818 20.8306 44.7847 20.8306H36.8614C36.7641 20.8306 36.6709 20.8692 36.6021 20.938C36.5333 21.0069 36.4947 21.1002 36.4947 21.1975V25.5918C36.4947 25.6892 36.5333 25.7825 36.6021 25.8513C36.6709 25.9201 36.7641 25.9588 36.8614 25.9588H43.6696C43.7668 25.9588 43.8601 25.9974 43.9289 26.0662C43.9976 26.1351 44.0363 26.2284 44.0363 26.3257V28.09C44.0363 28.1873 43.9976 28.2807 43.9289 28.3495C43.8601 28.4183 43.7668 28.4569 43.6696 28.4569H36.837C36.7397 28.4569 36.6464 28.4956 36.5777 28.5644C36.5089 28.6333 36.4702 28.7266 36.4702 28.8239V33.2451C36.4702 33.3424 36.5089 33.4357 36.5777 33.5045C36.6464 33.5734 36.7397 33.612 36.837 33.612H44.7847C44.8818 33.612 44.9751 33.6507 45.0441 33.7195C45.1127 33.7883 45.1514 33.8816 45.1514 33.9789V35.7164C45.1514 35.8137 45.1127 35.9071 45.0441 35.9759C44.9751 36.0447 44.8818 36.0833 44.7847 36.0833H33.9153C33.8669 36.0836 33.8191 36.0743 33.7744 36.0559C33.7297 36.0376 33.689 36.0106 33.6548 35.9765C33.6206 35.9424 33.5934 35.9019 33.5748 35.8572C33.5563 35.8126 33.5468 35.7647 33.5468 35.7164Z" fill="#071013"/>
<path d="M54.1986 36.3757C53.4176 36.382 52.6371 36.3332 51.8628 36.2296C51.2366 36.1438 50.6219 35.9877 50.0305 35.7642C49.5446 35.576 49.0451 35.3533 48.5315 35.0959C48.4708 35.0653 48.4202 35.0185 48.3846 34.9607C48.349 34.9028 48.3305 34.8362 48.3305 34.7684V32.7857C48.3305 32.7198 48.3481 32.6551 48.3815 32.5984C48.415 32.5418 48.4633 32.4951 48.5209 32.4635C48.5785 32.4318 48.6436 32.4164 48.7096 32.4187C48.7755 32.421 48.8393 32.441 48.8947 32.4766C49.5046 32.8671 50.1571 33.1856 50.8404 33.4259C51.8593 33.7865 52.933 33.9663 54.0134 33.9575C55.1114 33.9575 55.9306 33.7316 56.4701 33.2797C57.0101 32.8279 57.2801 32.2034 57.2801 31.4062C57.2801 30.7865 57.0813 30.2861 56.6838 29.9051C56.2863 29.524 55.7595 29.2006 55.1035 28.9349C54.4483 28.6692 53.7492 28.4035 53.006 28.1378C52.4392 27.9254 51.8812 27.6996 51.3329 27.4606C50.7978 27.2298 50.2969 26.9256 49.8458 26.5567C49.3907 26.178 49.0275 25.7011 48.783 25.1617C48.5165 24.5961 48.3829 23.8956 48.3824 23.0603C48.3873 22.4507 48.5042 21.8471 48.7276 21.2799C48.9628 20.6705 49.3195 20.1153 49.7759 19.648C50.2446 19.1612 50.8642 18.7716 51.6346 18.4792C52.4049 18.1868 53.3297 18.0407 54.4096 18.0407C55.0274 18.0339 55.6443 18.0783 56.2551 18.1732C56.7643 18.2581 57.2629 18.3963 57.7431 18.5854C58.1516 18.7469 58.5904 18.939 59.0596 19.1618C59.1225 19.1915 59.1757 19.2384 59.2131 19.2971C59.2505 19.3559 59.2702 19.4239 59.2702 19.4935V21.4738C59.2702 21.5386 59.2531 21.6023 59.2205 21.6584C59.188 21.7145 59.1414 21.7608 59.0851 21.7929C59.0288 21.8249 58.9651 21.8414 58.9 21.8407C58.8354 21.84 58.772 21.8221 58.7162 21.7889C58.4554 21.6321 58.1934 21.4809 57.9291 21.3354C57.4604 21.0804 56.9661 20.8756 56.4543 20.7244C55.8752 20.5577 55.2772 20.4682 54.6748 20.4583C53.9316 20.4412 53.3209 20.5299 52.8425 20.7244C52.3645 20.9189 52.0013 21.1934 51.7537 21.5478C51.5062 21.9066 51.3773 22.3343 51.3857 22.7703C51.3857 23.3909 51.5405 23.8825 51.8505 24.2452C52.16 24.608 52.5971 24.9091 53.1621 25.1486C53.7285 25.3872 54.3845 25.6219 55.1299 25.8526C55.7855 26.0654 56.4226 26.3041 57.0422 26.5686C57.6319 26.8165 58.1855 27.1426 58.6885 27.5382C59.1704 27.9242 59.5644 28.409 59.8441 28.96C60.136 29.5272 60.282 30.2269 60.2816 31.059C60.286 31.9605 60.0723 32.8497 59.6576 33.6502C59.2417 34.4561 58.5856 35.1125 57.6903 35.6192C56.7946 36.1259 55.6307 36.3781 54.1986 36.3757Z" fill="#071013"/>
<path d="M68.0311 35.7164V21.1975C68.0311 21.1002 67.9925 21.0069 67.9239 20.938C67.8548 20.8692 67.7616 20.8306 67.6644 20.8306H62.6618C62.6138 20.8306 62.5659 20.8211 62.5215 20.8026C62.4771 20.7842 62.4366 20.7572 62.4028 20.7231C62.3689 20.689 62.3417 20.6485 62.3232 20.604C62.3052 20.5595 62.2955 20.5118 62.2955 20.4636V18.7262C62.2955 18.678 62.3052 18.6303 62.3232 18.5858C62.3417 18.5413 62.3689 18.5008 62.4028 18.4667C62.4366 18.4327 62.4771 18.4056 62.5215 18.3872C62.5659 18.3688 62.6138 18.3593 62.6618 18.3593H76.3216C76.4187 18.3593 76.5124 18.3979 76.581 18.4667C76.6496 18.5355 76.6883 18.6289 76.6883 18.7262V20.4636C76.6883 20.561 76.6496 20.6543 76.581 20.7231C76.5124 20.7919 76.4187 20.8306 76.3216 20.8306H71.3189C71.271 20.8306 71.223 20.8401 71.1786 20.8585C71.1342 20.8769 71.0938 20.904 71.0595 20.938C71.0256 20.9721 70.9988 21.0126 70.9803 21.0571C70.9619 21.1016 70.9522 21.1493 70.9522 21.1975V35.7164C70.9522 35.8137 70.9135 35.9071 70.8449 35.9759C70.7763 36.0447 70.6826 36.0833 70.5855 36.0833H68.3979C68.3007 36.0832 68.2075 36.0445 68.1389 35.9757C68.0698 35.9069 68.0311 35.8137 68.0311 35.7164Z" fill="#071013"/>
<path d="M78.5962 35.7164V18.7262C78.5962 18.6289 78.6349 18.5355 78.7039 18.4667C78.7725 18.3979 78.8658 18.3593 78.9629 18.3593H89.834C89.9317 18.3593 90.0249 18.3979 90.0935 18.4667C90.1621 18.5355 90.2008 18.6289 90.2008 18.7262V20.4636C90.2008 20.561 90.1621 20.6543 90.0935 20.7231C90.0249 20.7919 89.9317 20.8306 89.834 20.8306H81.9103C81.8624 20.8306 81.8145 20.8401 81.7701 20.8585C81.7257 20.877 81.6852 20.904 81.6514 20.9381C81.6175 20.9721 81.5902 21.0126 81.5722 21.0572C81.5537 21.1016 81.5441 21.1493 81.5445 21.1975V25.5918C81.5441 25.64 81.5537 25.6877 81.5722 25.7322C81.5902 25.7767 81.6175 25.8172 81.6514 25.8513C81.6852 25.8854 81.7257 25.9124 81.7701 25.9308C81.8145 25.9493 81.8624 25.9588 81.9103 25.9588H88.7194C88.8165 25.9588 88.9098 25.9974 88.9784 26.0662C89.0474 26.1351 89.0861 26.2284 89.0861 26.3257V28.09C89.0861 28.1873 89.0474 28.2807 88.9784 28.3495C88.9098 28.4183 88.8165 28.4569 88.7194 28.4569H81.8844C81.7868 28.4569 81.6936 28.4956 81.625 28.5644C81.5559 28.6333 81.5177 28.7266 81.5177 28.8239V33.2451C81.5177 33.3424 81.5559 33.4357 81.625 33.5045C81.6936 33.5734 81.7868 33.612 81.8844 33.612H89.834C89.8824 33.6118 89.9303 33.6211 89.9752 33.6394C90.0196 33.6577 90.0605 33.6848 90.0948 33.7189C90.1291 33.753 90.1559 33.7935 90.1748 33.8381C90.1933 33.8828 90.2025 33.9306 90.2025 33.9789V35.7164C90.2025 35.8137 90.1643 35.9071 90.0952 35.9759C90.0266 36.0447 89.9334 36.0833 89.8358 36.0833H78.9629C78.8658 36.0833 78.7725 36.0447 78.7039 35.9759C78.6349 35.9071 78.5962 35.8137 78.5962 35.7164Z" fill="#071013"/>
<path d="M100.473 36.3489C97.6935 36.3489 95.5956 35.5959 94.1798 34.09C92.7639 32.584 92.0559 30.2901 92.0555 27.2082C92.0555 24.1784 92.7546 21.8976 94.1529 20.3658C95.5517 18.834 97.6584 18.0677 100.473 18.0669C101.418 18.0679 102.359 18.1839 103.276 18.4124C104.127 18.6232 104.958 18.9105 105.757 19.2709C105.822 19.2999 105.876 19.3468 105.914 19.406C105.952 19.4652 105.972 19.5341 105.972 19.6045V21.3741C105.972 21.4375 105.955 21.4998 105.924 21.5549C105.892 21.6101 105.847 21.6561 105.793 21.6887C105.739 21.7212 105.677 21.7391 105.613 21.7407C105.55 21.7422 105.487 21.7274 105.431 21.6975C104.779 21.3493 104.091 21.072 103.38 20.8706C102.555 20.6364 101.702 20.5159 100.845 20.5126C99.5522 20.5126 98.4767 20.7427 97.6179 21.2029C96.7591 21.6631 96.122 22.3807 95.7065 23.3556C95.29 24.3298 95.0821 25.6225 95.0821 27.2338C95.0821 28.811 95.2944 30.091 95.7196 31.0739C96.1444 32.0568 96.7864 32.7741 97.6447 33.226C98.503 33.6779 99.5962 33.9038 100.924 33.9038C101.76 33.8985 102.591 33.778 103.394 33.5458C104.099 33.3439 104.783 33.0719 105.434 32.7338C105.49 32.7047 105.552 32.6905 105.615 32.6926C105.678 32.6947 105.74 32.7129 105.794 32.7457C105.848 32.7784 105.892 32.8245 105.923 32.8794C105.954 32.9344 105.97 32.9964 105.97 33.0595V34.8441C105.97 34.914 105.951 34.9825 105.913 35.0415C105.875 35.1004 105.822 35.1475 105.758 35.177C105.268 35.4073 104.762 35.6037 104.244 35.7647C103.628 35.9588 102.997 36.1054 102.359 36.2033C101.735 36.2994 101.105 36.348 100.473 36.3489Z" fill="#071013"/>
<path d="M27.3278 47.8474C29.2071 47.8474 30.7306 46.3232 30.7306 44.4426C30.7306 42.5619 29.2071 41.0374 27.3278 41.0374C25.4484 41.0374 23.9249 42.5619 23.9249 44.4426C23.9249 46.3232 25.4484 47.8474 27.3278 47.8474Z" fill="#EF7B45"/>
<path d="M38.3401 47.8474C40.2195 47.8474 41.7431 46.3232 41.7431 44.4426C41.7431 42.5619 40.2195 41.0374 38.3401 41.0374C36.4608 41.0374 34.9373 42.5619 34.9373 44.4426C34.9373 46.3232 36.4608 47.8474 38.3401 47.8474Z" fill="#1A936F"/>
<path d="M38.3401 58.8672C40.2195 58.8672 41.7431 57.3426 41.7431 55.462C41.7431 53.5815 40.2195 52.0569 38.3401 52.0569C36.4608 52.0569 34.9373 53.5815 34.9373 55.462C34.9373 57.3426 36.4608 58.8672 38.3401 58.8672Z" fill="#726DA8"/>
</svg>
